# xmcd
#
# Track frame offsets: 
#        150
#        13480
#        24105
#        36347
#        47467
#        60170
#        73005
#        85867
#        96205
#        110672
#        124510
#        138125
#        151690
#        163117
#        174635
#
# Disc length: 2492 seconds
#
# Revision: 1
# Processed by: cddbd v1.5.2PL0 Copyright (c) Steve Scherf et al.
# Submitted via: ExactAudioCopy v0.99pb5
#
DISCID=b709ba0f
DTITLE=Various Artist - LIVING THE BLUES - 1955-1956 BLUES CLASSICS
DYEAR=1998
DGENRE=Blues
TTITLE0=MUDDY WATERS - Mannish Boy (1955)
TTITLE1=JIMMY REED - Ain't That Loving You Baby (1956)
TTITLE2=LITTLE WALTER - Mellow Down Easy (1955)
TTITLE3=SMILEY LEWIS - One Night (1956)
TTITLE4=BB KING - Every Day I Have The Blues (1955)
TTITLE5=SONNY BOY WILLIAMSON - Keep It To Yourself (1956)
TTITLE6=LITTLE PARKER JUNIOR - I Wanna Ramble (1955)
TTITLE7=LITTLE WILLIE JOHN - Need Your Love So Bad (1956)
TTITLE8=BILLY `THE KID´ EMERSON - When It Rains It Pours (1955)
TTITLE9=OTIS RUSH - My Love Will Never Die (1956)
TTITLE10=RUTH BROWN - I Can See Everybody's Baby (1955)
TTITLE11=LOWELL FULSON - Loving You (Is All I Crave) (1955)
TTITLE12=ANN COLE and THE DAVE MCRAE ORCHESTRA - Are You Satisfied (1955
TTITLE12=)
TTITLE13=CHRIS KENNER - Sick And Tired (1956)
TTITLE14=IVORY JOE HUNTER - Since I Met You Baby (1956)
EXTD=
EXTT0=
EXTT1=
EXTT2=
EXTT3=
EXTT4=
EXTT5=
EXTT6=
EXTT7=
EXTT8=
EXTT9=
EXTT10=
EXTT11=
EXTT12=
EXTT13=
EXTT14=
PLAYORDER=
